<?xml version="1.0"?>








<svg xmlns="http://www.w3.org/2000/svg" viewBox="0 0 200 220" style="display:none">

  <defs>
    <radialGradient id="mm-blush" cx="50%" cy="50%" r="50%">
      <stop offset="0%" stop-color="#F4A799" stop-opacity="0.85"></stop>
      <stop offset="100%" stop-color="#F4A799" stop-opacity="0"></stop>
    </radialGradient>
  </defs>


  
  <symbol id="maomao-standing" viewBox="0 0 200 220">
    <g stroke="#2B2419" stroke-width="1.8" stroke-linejoin="round">
      <ellipse cx="100" cy="205" rx="48" ry="6" fill="#2B2419" opacity="0.12" stroke="none"></ellipse>
      <ellipse cx="100" cy="142" rx="48" ry="52" style="fill: var(--body-color, #FFFDF6)"></ellipse>
      <ellipse cx="56" cy="138" rx="14" ry="24" transform="rotate(-12 56 138)" style="fill: var(--wing-color, #FBE39A)"></ellipse>
      <ellipse cx="144" cy="138" rx="14" ry="24" transform="rotate(12 144 138)" style="fill: var(--wing-color, #FBE39A)"></ellipse>
      <circle cx="100" cy="78" r="42" style="fill: var(--body-color, #FFFDF6)"></circle>
      <path d="M 88,42 Q 92,32 100,38 Q 108,32 112,42 Z" stroke-linecap="round" style="fill: var(--comb-color, transparent)"></path>
      <circle cx="86" cy="76" r="3.5" fill="#2B2419" stroke="none"></circle>
      <circle cx="114" cy="76" r="3.5" fill="#2B2419" stroke="none"></circle>
      <circle cx="87" cy="75" r="1" fill="#FFFFFF" stroke="none"></circle>
      <circle cx="115" cy="75" r="1" fill="#FFFFFF" stroke="none"></circle>
      <polygon points="94,90 114,87 94,94" stroke-linejoin="round" style="fill: var(--beak-color, #E56B5A)"></polygon>
      <path d="M 86,192 L 82,206" stroke-width="4" stroke-linecap="round" fill="none" style="stroke: var(--beak-color, #E56B5A)"></path>
      <path d="M 114,192 L 118,206" stroke-width="4" stroke-linecap="round" fill="none" style="stroke: var(--beak-color, #E56B5A)"></path>
    </g>
  </symbol>


  
  <symbol id="maomao-reading" viewBox="0 0 200 220">
    <g stroke="#2B2419" stroke-width="1.8" stroke-linejoin="round">
      <ellipse cx="100" cy="205" rx="48" ry="6" fill="#2B2419" opacity="0.12" stroke="none"></ellipse>
      <ellipse cx="100" cy="148" rx="48" ry="50" style="fill: var(--body-color, #FFFDF6)"></ellipse>
      <circle cx="100" cy="86" r="40" style="fill: var(--body-color, #FFFDF6)"></circle>
      <path d="M 88,52 Q 92,42 100,48 Q 108,42 112,52 Z" style="fill: var(--comb-color, transparent)"></path>
      <path d="M 80,92 Q 86,96 92,92" stroke="#2B2419" stroke-width="2.2" fill="none" stroke-linecap="round"></path>
      <path d="M 108,92 Q 114,96 120,92" stroke="#2B2419" stroke-width="2.2" fill="none" stroke-linecap="round"></path>
      <polygon points="96,100 110,104 96,108" style="fill: var(--beak-color, #E56B5A)"></polygon>
      <g transform="translate(100 156) rotate(-4)">
        <rect x="-38" y="-14" width="76" height="34" rx="2" fill="#FFFDF6" stroke="#2B2419" stroke-width="1.8"></rect>
        <line x1="0" y1="-14" x2="0" y2="20" stroke-width="2" style="stroke: var(--accent-color, #4B7BA8)"></line>
        <line x1="-30" y1="-5" x2="-8" y2="-5" stroke="#2B2419" stroke-width="1.2" opacity="0.5"></line>
        <line x1="-30" y1="2" x2="-12" y2="2" stroke="#2B2419" stroke-width="1.2" opacity="0.5"></line>
        <line x1="-30" y1="9" x2="-6" y2="9" stroke="#2B2419" stroke-width="1.2" opacity="0.5"></line>
        <line x1="8" y1="-5" x2="30" y2="-5" stroke="#2B2419" stroke-width="1.2" opacity="0.5"></line>
        <line x1="8" y1="2" x2="26" y2="2" stroke="#2B2419" stroke-width="1.2" opacity="0.5"></line>
        <line x1="8" y1="9" x2="30" y2="9" stroke="#2B2419" stroke-width="1.2" opacity="0.5"></line>
      </g>
      <ellipse cx="62" cy="155" rx="13" ry="18" transform="rotate(-40 62 155)" style="fill: var(--wing-color, #FBE39A)"></ellipse>
      <ellipse cx="138" cy="155" rx="13" ry="18" transform="rotate(40 138 155)" style="fill: var(--wing-color, #FBE39A)"></ellipse>
      <path d="M 86,196 L 82,210" stroke-width="4" stroke-linecap="round" fill="none" style="stroke: var(--beak-color, #E56B5A)"></path>
      <path d="M 114,196 L 118,210" stroke-width="4" stroke-linecap="round" fill="none" style="stroke: var(--beak-color, #E56B5A)"></path>
    </g>
  </symbol>


  
  <symbol id="maomao-shy" viewBox="0 0 200 220">
    <g stroke="#2B2419" stroke-width="1.8" stroke-linejoin="round">
      <ellipse cx="100" cy="205" rx="48" ry="6" fill="#2B2419" opacity="0.12" stroke="none"></ellipse>
      <ellipse cx="100" cy="142" rx="48" ry="52" style="fill: var(--body-color, #FFFDF6)"></ellipse>
      <circle cx="100" cy="78" r="42" style="fill: var(--body-color, #FFFDF6)"></circle>
      <path d="M 88,42 Q 92,32 100,38 Q 108,32 112,42 Z" style="fill: var(--comb-color, transparent)"></path>
      <ellipse cx="78" cy="85" rx="9" ry="6" fill="url(#mm-blush)" stroke="none"></ellipse>
      <ellipse cx="122" cy="85" rx="9" ry="6" fill="url(#mm-blush)" stroke="none"></ellipse>
      <path d="M 80,76 Q 86,72 92,76" stroke="#2B2419" stroke-width="2.2" fill="none" stroke-linecap="round"></path>
      <path d="M 108,76 Q 114,72 120,76" stroke="#2B2419" stroke-width="2.2" fill="none" stroke-linecap="round"></path>
      <polygon points="95,88 108,86 95,92" style="fill: var(--beak-color, #E56B5A)"></polygon>
      <ellipse cx="62" cy="84" rx="14" ry="26" transform="rotate(40 62 84)" style="fill: var(--wing-color, #FBE39A)"></ellipse>
      <ellipse cx="138" cy="84" rx="14" ry="26" transform="rotate(-40 138 84)" style="fill: var(--wing-color, #FBE39A)"></ellipse>
      <path d="M 86,192 L 82,206" stroke-width="4" stroke-linecap="round" fill="none" style="stroke: var(--beak-color, #E56B5A)"></path>
      <path d="M 114,192 L 118,206" stroke-width="4" stroke-linecap="round" fill="none" style="stroke: var(--beak-color, #E56B5A)"></path>
    </g>
  </symbol>


  
  <symbol id="maomao-surprised" viewBox="0 0 200 220">
    <g stroke="#2B2419" stroke-width="1.8" stroke-linejoin="round">
      <ellipse cx="100" cy="205" rx="48" ry="6" fill="#2B2419" opacity="0.12" stroke="none"></ellipse>
      <ellipse cx="100" cy="142" rx="48" ry="52" style="fill: var(--body-color, #FFFDF6)"></ellipse>
      <ellipse cx="46" cy="125" rx="13" ry="24" transform="rotate(-45 46 125)" style="fill: var(--wing-color, #FBE39A)"></ellipse>
      <ellipse cx="154" cy="125" rx="13" ry="24" transform="rotate(45 154 125)" style="fill: var(--wing-color, #FBE39A)"></ellipse>
      <circle cx="100" cy="78" r="42" style="fill: var(--body-color, #FFFDF6)"></circle>
      <path d="M 88,42 Q 92,32 100,38 Q 108,32 112,42 Z" style="fill: var(--comb-color, transparent)"></path>
      <circle cx="86" cy="76" r="7" fill="#FFFFFF" stroke="#2B2419" stroke-width="1.6"></circle>
      <circle cx="114" cy="76" r="7" fill="#FFFFFF" stroke="#2B2419" stroke-width="1.6"></circle>
      <circle cx="86" cy="76" r="3.2" fill="#2B2419" stroke="none"></circle>
      <circle cx="114" cy="76" r="3.2" fill="#2B2419" stroke="none"></circle>
      <circle cx="87" cy="75" r="0.9" fill="#FFFFFF" stroke="none"></circle>
      <circle cx="115" cy="75" r="0.9" fill="#FFFFFF" stroke="none"></circle>
      <ellipse cx="100" cy="94" rx="5" ry="6" style="fill: var(--beak-color, #E56B5A)"></ellipse>
      <g stroke="none" style="fill: var(--accent-color, #E56B5A)">
        <rect x="58" y="32" width="3" height="10" rx="1.5"></rect>
        <circle cx="59.5" cy="46" r="1.8"></circle>
        <rect x="138" y="32" width="3" height="10" rx="1.5"></rect>
        <circle cx="139.5" cy="46" r="1.8"></circle>
      </g>
      <path d="M 86,192 L 80,208" stroke-width="4" stroke-linecap="round" fill="none" style="stroke: var(--beak-color, #E56B5A)"></path>
      <path d="M 114,192 L 120,208" stroke-width="4" stroke-linecap="round" fill="none" style="stroke: var(--beak-color, #E56B5A)"></path>
    </g>
  </symbol>


  
  <symbol id="maomao-proud" viewBox="0 0 200 220">
    <g stroke="#2B2419" stroke-width="1.8" stroke-linejoin="round">
      <ellipse cx="100" cy="205" rx="48" ry="6" fill="#2B2419" opacity="0.12" stroke="none"></ellipse>
      <ellipse cx="100" cy="145" rx="52" ry="52" style="fill: var(--body-color, #FFFDF6)"></ellipse>
      <circle cx="100" cy="72" r="40" style="fill: var(--body-color, #FFFDF6)"></circle>
      <path d="M 88,36 Q 92,26 100,32 Q 108,26 112,36 Z" style="fill: var(--comb-color, transparent)"></path>
      <path d="M 80,72 Q 86,76 92,72" stroke="#2B2419" stroke-width="2.2" fill="none" stroke-linecap="round"></path>
      <path d="M 108,72 Q 114,76 120,72" stroke="#2B2419" stroke-width="2.2" fill="none" stroke-linecap="round"></path>
      <polygon points="94,82 114,80 94,76" style="fill: var(--beak-color, #E56B5A)"></polygon>
      <ellipse cx="50" cy="148" rx="11" ry="20" transform="rotate(-35 50 148)" style="fill: var(--wing-color, #FBE39A)"></ellipse>
      <ellipse cx="150" cy="148" rx="11" ry="20" transform="rotate(35 150 148)" style="fill: var(--wing-color, #FBE39A)"></ellipse>
      <g stroke="#2B2419" stroke-width="1.2" style="fill: var(--accent-color, #F4C13E)">
        <path d="M 50,32 L 53,38 L 60,39 L 55,44 L 56,51 L 50,48 L 44,51 L 45,44 L 40,39 L 47,38 Z"></path>
        <path d="M 150,32 L 153,38 L 160,39 L 155,44 L 156,51 L 150,48 L 144,51 L 145,44 L 140,39 L 147,38 Z"></path>
      </g>
      <path d="M 86,194 L 84,208" stroke-width="4" stroke-linecap="round" fill="none" style="stroke: var(--beak-color, #E56B5A)"></path>
      <path d="M 114,194 L 116,208" stroke-width="4" stroke-linecap="round" fill="none" style="stroke: var(--beak-color, #E56B5A)"></path>
    </g>
  </symbol>


  
  <symbol id="maomao-thinking" viewBox="0 0 200 220">
    <g stroke="#2B2419" stroke-width="1.8" stroke-linejoin="round">
      <ellipse cx="100" cy="205" rx="48" ry="6" fill="#2B2419" opacity="0.12" stroke="none"></ellipse>
      <ellipse cx="100" cy="142" rx="48" ry="52" style="fill: var(--body-color, #FFFDF6)"></ellipse>
      <g transform="rotate(-8 100 78)">
        <circle cx="100" cy="78" r="42" style="fill: var(--body-color, #FFFDF6)"></circle>
        <path d="M 88,42 Q 92,32 100,38 Q 108,32 112,42 Z" style="fill: var(--comb-color, transparent)"></path>
        <circle cx="86" cy="72" r="3.5" fill="#2B2419" stroke="none"></circle>
        <circle cx="114" cy="72" r="3.5" fill="#2B2419" stroke="none"></circle>
        <polygon points="94,90 110,88 94,93" style="fill: var(--beak-color, #E56B5A)"></polygon>
      </g>
      <ellipse cx="138" cy="100" rx="12" ry="20" transform="rotate(60 138 100)" style="fill: var(--wing-color, #FBE39A)"></ellipse>
      <ellipse cx="56" cy="138" rx="14" ry="24" transform="rotate(-12 56 138)" style="fill: var(--wing-color, #FBE39A)"></ellipse>
      <g stroke="#2B2419" stroke-width="1.2" style="fill: var(--accent-color, #4B7BA8)">
        <circle cx="160" cy="56" r="4"></circle>
        <circle cx="172" cy="42" r="5.5"></circle>
        <circle cx="186" cy="26" r="7"></circle>
      </g>
      <path d="M 86,192 L 82,206" stroke-width="4" stroke-linecap="round" fill="none" style="stroke: var(--beak-color, #E56B5A)"></path>
      <path d="M 114,192 L 118,206" stroke-width="4" stroke-linecap="round" fill="none" style="stroke: var(--beak-color, #E56B5A)"></path>
    </g>
  </symbol>


  
  <symbol id="maomao-running" viewBox="0 0 200 220">
    <g stroke="#2B2419" stroke-width="1.8" stroke-linejoin="round">
      <ellipse cx="100" cy="207" rx="44" ry="5" fill="#2B2419" opacity="0.12" stroke="none"></ellipse>
      <g transform="rotate(8 100 130)">
        <ellipse cx="100" cy="142" rx="46" ry="50" style="fill: var(--body-color, #FFFDF6)"></ellipse>
        <circle cx="100" cy="78" r="40" style="fill: var(--body-color, #FFFDF6)"></circle>
        <path d="M 88,42 Q 92,32 100,38 Q 108,32 112,42 Z" style="fill: var(--comb-color, transparent)"></path>
        <circle cx="108" cy="76" r="3.5" fill="#2B2419" stroke="none"></circle>
        <circle cx="86" cy="76" r="3.5" fill="#2B2419" stroke="none"></circle>
        <polygon points="100,90 122,87 100,93" style="fill: var(--beak-color, #E56B5A)"></polygon>
        <ellipse cx="54" cy="120" rx="12" ry="22" transform="rotate(-55 54 120)" style="fill: var(--wing-color, #FBE39A)"></ellipse>
        <ellipse cx="148" cy="160" rx="12" ry="22" transform="rotate(40 148 160)" style="fill: var(--wing-color, #FBE39A)"></ellipse>
      </g>
      <path d="M 78,190 L 64,210" stroke-width="4" stroke-linecap="round" fill="none" style="stroke: var(--beak-color, #E56B5A)"></path>
      <path d="M 122,188 L 138,202" stroke-width="4" stroke-linecap="round" fill="none" style="stroke: var(--beak-color, #E56B5A)"></path>
      <g stroke-width="2.2" stroke-linecap="round" opacity="0.7" fill="none" style="stroke: var(--accent-color, #2B2419)">
        <line x1="20" y1="100" x2="38" y2="100"></line>
        <line x1="14" y1="130" x2="36" y2="130"></line>
        <line x1="22" y1="160" x2="40" y2="160"></line>
      </g>
    </g>
  </symbol>


  
  <symbol id="maomao-sleeping" viewBox="0 0 200 220">
    <g stroke="#2B2419" stroke-width="1.8" stroke-linejoin="round">
      <ellipse cx="100" cy="190" rx="80" ry="8" fill="#2B2419" opacity="0.10" stroke="none"></ellipse>
      <ellipse cx="118" cy="160" rx="64" ry="30" style="fill: var(--body-color, #FFFDF6)"></ellipse>
      <circle cx="58" cy="150" r="34" style="fill: var(--body-color, #FFFDF6)"></circle>
      <path d="M 50,118 Q 54,108 60,114 Q 66,108 70,118 Z" style="fill: var(--comb-color, transparent)"></path>
      <path d="M 38,148 Q 45,144 52,148" stroke="#2B2419" stroke-width="2.2" fill="none" stroke-linecap="round"></path>
      <path d="M 62,148 Q 69,144 76,148" stroke="#2B2419" stroke-width="2.2" fill="none" stroke-linecap="round"></path>
      <polygon points="30,156 42,154 30,160" style="fill: var(--beak-color, #E56B5A)"></polygon>
      <ellipse cx="120" cy="148" rx="22" ry="12" transform="rotate(-15 120 148)" style="fill: var(--wing-color, #FBE39A)"></ellipse>
      <path d="M 162,178 L 172,176" stroke-width="4" stroke-linecap="round" fill="none" style="stroke: var(--beak-color, #E56B5A)"></path>
      <path d="M 170,184 L 180,182" stroke-width="4" stroke-linecap="round" fill="none" style="stroke: var(--beak-color, #E56B5A)"></path>
      <g stroke="#2B2419" stroke-width="1.2" font-family="LXGW WenKai TC, serif" font-weight="700" stroke-linejoin="miter" style="fill: var(--accent-color, #4B7BA8)">
        <text x="100" y="86" font-size="18">z</text>
        <text x="118" y="68" font-size="22">z</text>
        <text x="142" y="46" font-size="28">Z</text>
      </g>
    </g>
  </symbol>

</svg>